# xmcd
#
# Track frame offsets:
#	180
#	11657
#	20283
#	31622
#	40387
#	51551
#	61320
#	71375
#	80603
#	91910
#	102866
#	116135
#	127463
#	136909
#	148630
#	160477
#	172994
#	185663
#	198113
#	211336
#	221844
#
# Disc length: 3115 seconds
#
# Revision: 1
# Processed by: cddbd v1.4PL0 Copyright (c) Steve Scherf et al.
# Submitted via: audiograbber 1.81.02
#
DISCID=340c2915
DTITLE=Sonny James - Young Love
DYEAR=1900
DGENRE=Country
TTITLE0=That's Me Without You
TTITLE1=For Rent (One Empty Heart)
TTITLE2=Young Love
TTITLE3=You're The Reason I'm In Love
TTITLE4=First Date, First Kiss, First Love
TTITLE5=Uh-Huh-Mm
TTITLE6=You're The World I Know
TTITLE7=Behind The Tear
TTITLE8=Take Good Care Of Her
TTITLE9=I'll Never Find Another You
TTITLE10=It's The Little Things
TTITLE11=A World Of Our Own
TTITLE12=Heaven Says Hello
TTITLE13=Born To Be With You
TTITLE14=Only The Lonley
TTITLE15=Running Bear
TTITLE16=My Love
TTITLE17=Don't Keep Me Hangin' On
TTITLE18=Endlessly
TTITLE19=Empty Arms
TTITLE20=Bright Lights, Big City
EXTD=
EXTT0=
EXTT1=
EXTT2=
EXTT3=
EXTT4=
EXTT5=
EXTT6=
EXTT7=
EXTT8=
EXTT9=
EXTT10=
EXTT11=
EXTT12=
EXTT13=
EXTT14=
EXTT15=
EXTT16=
EXTT17=
EXTT18=
EXTT19=
EXTT20=
PLAYORDER=
